<svg width="7" height="2" viewBox="0 0 7 2" fill="none" xmlns="http://www.w3.org/2000/svg">
<g id="Group 2">
<g id="Group 1">
<circle id="Ellipse 1" cx="0.75" cy="0.75" r="0.75" fill="#00BBDD"/>
<path id="Ellipse 2" d="M1.44001 0.740008C1.44001 1.12661 1.12661 1.44001 0.740009 1.44001C0.353409 1.44001 0.0400085 1.12661 0.0400085 0.740008C0.0400085 0.353409 0.353409 0.0400085 0.740009 0.0400085C1.12661 0.0400085 1.44001 0.353409 1.44001 0.740008ZM0.0970611 0.740008C0.0970611 1.0951 0.384919 1.38296 0.740009 1.38296C1.0951 1.38296 1.38296 1.0951 1.38296 0.740008C1.38296 0.384918 1.0951 0.0970611 0.740009 0.0970611C0.384919 0.0970611 0.0970611 0.384918 0.0970611 0.740008Z" fill="white"/>
<path id="Ellipse 3" d="M1.23999 0.73999C1.23999 1.01613 1.01613 1.23999 0.73999 1.23999C0.463848 1.23999 0.23999 1.01613 0.23999 0.73999C0.23999 0.463848 0.463848 0.23999 0.73999 0.23999C1.01613 0.23999 1.23999 0.463848 1.23999 0.73999ZM0.280742 0.73999C0.280742 0.993626 0.486354 1.19924 0.73999 1.19924C0.993626 1.19924 1.19924 0.993626 1.19924 0.73999C1.19924 0.486354 0.993626 0.280742 0.73999 0.280742C0.486354 0.280742 0.280742 0.486354 0.280742 0.73999Z" fill="white"/>
<ellipse id="Ellipse 4" cx="1.31001" cy="0.750012" rx="0.05" ry="0.05" fill="#D1F4FC"/>
<ellipse id="Ellipse 5" cx="0.170026" cy="0.750012" rx="0.05" ry="0.05" fill="#D1F4FC"/>
<ellipse id="Ellipse 6" cx="0.740029" cy="0.739999" rx="0.46" ry="0.46" fill="#D1F4FC"/>
<path id="Vector 1" d="M1.02998 0.579987H0.419983L0.649983 0.999987H0.929983L1.02998 0.579987Z" stroke="white" stroke-width="0.02"/>
<path id="Vector 2" d="M0.975546 0.781163C0.959767 0.771065 0.973532 0.768815 0.988014 0.760595C1.00525 0.750811 1.03326 0.741323 1.04499 0.763871C1.06015 0.793035 1.05534 0.835549 1.03852 0.863071C1.01965 0.893948 0.995297 0.923247 0.961167 0.937151C0.950621 0.941448 0.939245 0.955757 0.92804 0.96136" stroke="white" stroke-width="0.01" stroke-linecap="round"/>
<path id="Vector 3" d="M0.72999 0.689986C0.65999 0.619986 0.48999 0.689986 0.48999 0.689986L0.65999 0.989985H0.91999L0.96999 0.759986C0.96999 0.759986 0.79999 0.759986 0.72999 0.689986Z" fill="#00BBDD"/>
<rect id="Rectangle 1" x="0.380005" y="1.03998" width="0.72" height="0.04" fill="white"/>
</g>
<path id="WCB CAFE" d="M2.907 0.292V0.312C2.89433 0.314667 2.88033 0.322333 2.865 0.335C2.84967 0.347 2.83733 0.368333 2.828 0.399L2.639 1.005C2.63767 1.005 2.63633 1.005 2.635 1.005C2.63367 1.005 2.63233 1.005 2.631 1.005C2.62967 1.005 2.62833 1.005 2.627 1.005C2.62567 1.005 2.62433 1.005 2.623 1.005L2.411 0.376C2.40233 0.35 2.39267 0.333 2.382 0.325C2.37133 0.317 2.36133 0.312667 2.352 0.312V0.292C2.364 0.292667 2.379 0.293333 2.397 0.294C2.415 0.294667 2.43233 0.295 2.449 0.295C2.475 0.295 2.49933 0.294667 2.522 0.294C2.54467 0.293333 2.563 0.292667 2.577 0.292V0.312C2.557 0.312667 2.541 0.314667 2.529 0.318C2.51767 0.321333 2.511 0.328667 2.509 0.34C2.50767 0.351333 2.511 0.37 2.519 0.396L2.668 0.857L2.654 0.869L2.786 0.454C2.798 0.417333 2.80333 0.389 2.802 0.369C2.80133 0.348333 2.794 0.334 2.78 0.326C2.766 0.317333 2.745 0.312667 2.717 0.312V0.292C2.73633 0.292667 2.756 0.293333 2.776 0.294C2.796 0.294667 2.81467 0.295 2.832 0.295C2.84933 0.295 2.86367 0.294667 2.875 0.294C2.88633 0.293333 2.897 0.292667 2.907 0.292ZM2.208 0.292V0.312C2.19067 0.313333 2.178 0.316667 2.17 0.322C2.16267 0.327333 2.159 0.336 2.159 0.348C2.15967 0.359333 2.16333 0.375333 2.17 0.396L2.325 0.869L2.3 0.894L2.44 0.447L2.455 0.471L2.29 1.005C2.28867 1.005 2.28733 1.005 2.286 1.005C2.28467 1.005 2.28333 1.005 2.282 1.005C2.28067 1.005 2.27933 1.005 2.278 1.005C2.27667 1.005 2.27533 1.005 2.274 1.005L2.062 0.376C2.05333 0.35 2.04233 0.333 2.029 0.325C2.01567 0.317 2.00367 0.312667 1.993 0.312V0.292C2.00633 0.292667 2.02267 0.293333 2.042 0.294C2.062 0.294667 2.08133 0.295 2.1 0.295C2.122 0.295 2.14233 0.294667 2.161 0.294C2.18033 0.293333 2.196 0.292667 2.208 0.292ZM3.26163 0.278C3.30563 0.278 3.34163 0.284667 3.36963 0.298C3.39829 0.310667 3.42363 0.325667 3.44563 0.343C3.45896 0.353 3.46896 0.354333 3.47563 0.347C3.48296 0.339 3.48796 0.320667 3.49063 0.292H3.51363C3.51229 0.316667 3.51129 0.346667 3.51063 0.382C3.50996 0.417333 3.50963 0.464 3.50963 0.522H3.48663C3.48196 0.493333 3.47763 0.470667 3.47363 0.454C3.46963 0.436667 3.46463 0.422 3.45863 0.41C3.45329 0.398 3.44596 0.386 3.43663 0.374C3.41596 0.346667 3.38996 0.327 3.35863 0.315C3.32729 0.302333 3.29429 0.296 3.25963 0.296C3.22696 0.296 3.19729 0.304333 3.17063 0.321C3.14463 0.337 3.12196 0.360333 3.10263 0.391C3.08396 0.421667 3.06929 0.458667 3.05863 0.502C3.04863 0.545333 3.04363 0.594 3.04363 0.648C3.04363 0.704 3.04929 0.753667 3.06063 0.797C3.07196 0.839667 3.08763 0.875667 3.10763 0.905C3.12829 0.934333 3.15229 0.956667 3.17963 0.972C3.20763 0.986667 3.23763 0.994 3.26963 0.994C3.29963 0.994 3.33096 0.988 3.36363 0.976C3.39629 0.964 3.42196 0.944667 3.44063 0.918C3.45529 0.898667 3.46529 0.877667 3.47063 0.855C3.47663 0.832333 3.48196 0.800667 3.48663 0.76H3.50963C3.50963 0.820667 3.50996 0.869667 3.51063 0.907C3.51129 0.943667 3.51229 0.974667 3.51363 1H3.49063C3.48796 0.971333 3.48329 0.953333 3.47663 0.946C3.47063 0.938667 3.46029 0.939667 3.44563 0.949C3.42096 0.966333 3.39463 0.981667 3.36663 0.995C3.33929 1.00767 3.30396 1.014 3.26063 1.014C3.19729 1.014 3.14163 0.999667 3.09363 0.971C3.04629 0.942333 3.00929 0.901 2.98263 0.847C2.95663 0.793 2.94363 0.728 2.94363 0.652C2.94363 0.577333 2.95729 0.512 2.98463 0.456C3.01196 0.4 3.04929 0.356333 3.09663 0.325C3.14463 0.293667 3.19963 0.278 3.26163 0.278ZM3.6211 0.292C3.6351 0.292667 3.65343 0.293333 3.6761 0.294C3.69877 0.294667 3.7211 0.295 3.7431 0.295C3.77443 0.295 3.80443 0.294667 3.8331 0.294C3.86177 0.293333 3.8821 0.293 3.8941 0.293C3.9641 0.293 4.01677 0.307667 4.0521 0.337C4.08743 0.366333 4.1051 0.404 4.1051 0.45C4.1051 0.473333 4.1001 0.496333 4.0901 0.519C4.08077 0.541 4.06477 0.561333 4.0421 0.58C4.0201 0.598 3.99043 0.612667 3.9531 0.624V0.626C4.00577 0.632667 4.04677 0.645333 4.0761 0.664C4.1061 0.682 4.1271 0.703333 4.1391 0.728C4.1511 0.752667 4.1571 0.778667 4.1571 0.806C4.1571 0.844 4.14743 0.877667 4.1281 0.907C4.10943 0.935667 4.0821 0.958333 4.0461 0.975C4.0101 0.991667 3.9671 1 3.9171 1C3.90243 1 3.88043 0.999667 3.8511 0.999C3.82177 0.997667 3.78643 0.997 3.7451 0.997C3.72177 0.997 3.69877 0.997333 3.6761 0.998C3.65343 0.998 3.6351 0.998667 3.6211 1V0.98C3.64377 0.978667 3.66077 0.976 3.6721 0.972C3.6841 0.968 3.6921 0.96 3.6961 0.948C3.7001 0.936 3.7021 0.918 3.7021 0.894V0.398C3.7021 0.373333 3.7001 0.355333 3.6961 0.344C3.6921 0.332 3.6841 0.324 3.6721 0.32C3.66077 0.315333 3.64377 0.312667 3.6211 0.312V0.292ZM3.8691 0.312C3.83843 0.312 3.81843 0.317667 3.8091 0.329C3.79977 0.340333 3.7951 0.363333 3.7951 0.398V0.894C3.7951 0.917333 3.7971 0.935 3.8011 0.947C3.8051 0.959 3.81243 0.967 3.8231 0.971C3.83377 0.975 3.84943 0.977 3.8701 0.977C3.93543 0.977 3.98277 0.962 4.0121 0.932C4.0421 0.901333 4.0571 0.858 4.0571 0.802C4.0571 0.750667 4.0431 0.711 4.0151 0.683C3.98777 0.655 3.94243 0.641 3.8791 0.641H3.7761C3.7761 0.641 3.7761 0.638333 3.7761 0.633C3.7761 0.627 3.7761 0.624 3.7761 0.624H3.8621C3.90143 0.624 3.93177 0.616667 3.9531 0.602C3.97443 0.586667 3.9891 0.566667 3.9971 0.542C4.0051 0.516667 4.0091 0.489667 4.0091 0.461C4.0091 0.411667 3.9981 0.374667 3.9761 0.35C3.95477 0.324667 3.9191 0.312 3.8691 0.312ZM4.82217 0.278C4.86617 0.278 4.90217 0.284667 4.93017 0.298C4.95884 0.310667 4.98417 0.325667 5.00617 0.343C5.01951 0.353 5.02951 0.354333 5.03617 0.347C5.04351 0.339 5.04851 0.320667 5.05117 0.292H5.07417C5.07284 0.316667 5.07184 0.346667 5.07117 0.382C5.07051 0.417333 5.07017 0.464 5.07017 0.522H5.04717C5.04251 0.493333 5.03817 0.470667 5.03417 0.454C5.03017 0.436667 5.02517 0.422 5.01917 0.41C5.01384 0.398 5.00651 0.386 4.99717 0.374C4.97651 0.346667 4.95051 0.327 4.91917 0.315C4.88784 0.302333 4.85484 0.296 4.82017 0.296C4.78751 0.296 4.75784 0.304333 4.73117 0.321C4.70517 0.337 4.68251 0.360333 4.66317 0.391C4.64451 0.421667 4.62984 0.458667 4.61917 0.502C4.60917 0.545333 4.60417 0.594 4.60417 0.648C4.60417 0.704 4.60984 0.753667 4.62117 0.797C4.63251 0.839667 4.64817 0.875667 4.66817 0.905C4.68884 0.934333 4.71284 0.956667 4.74017 0.972C4.76817 0.986667 4.79817 0.994 4.83017 0.994C4.86017 0.994 4.89151 0.988 4.92417 0.976C4.95684 0.964 4.98251 0.944667 5.00117 0.918C5.01584 0.898667 5.02584 0.877667 5.03117 0.855C5.03717 0.832333 5.04251 0.800667 5.04717 0.76H5.07017C5.07017 0.820667 5.07051 0.869667 5.07117 0.907C5.07184 0.943667 5.07284 0.974667 5.07417 1H5.05117C5.04851 0.971333 5.04384 0.953333 5.03717 0.946C5.03117 0.938667 5.02084 0.939667 5.00617 0.949C4.98151 0.966333 4.95517 0.981667 4.92717 0.995C4.89984 1.00767 4.86451 1.014 4.82117 1.014C4.75784 1.014 4.70217 0.999667 4.65417 0.971C4.60684 0.942333 4.56984 0.901 4.54317 0.847C4.51717 0.793 4.50417 0.728 4.50417 0.652C4.50417 0.577333 4.51784 0.512 4.54517 0.456C4.57251 0.4 4.60984 0.356333 4.65717 0.325C4.70517 0.293667 4.76017 0.278 4.82217 0.278ZM5.46265 0.287L5.70665 0.916C5.71665 0.941333 5.72798 0.958333 5.74065 0.967C5.75332 0.975 5.76498 0.979333 5.77565 0.98V1C5.76232 0.998667 5.74598 0.998 5.72665 0.998C5.70732 0.997333 5.68798 0.997 5.66865 0.997C5.64265 0.997 5.61832 0.997333 5.59565 0.998C5.57298 0.998 5.55465 0.998667 5.54065 1V0.98C5.57465 0.978667 5.59632 0.973 5.60565 0.963C5.61498 0.952333 5.61298 0.93 5.59965 0.896L5.41365 0.399L5.42965 0.386L5.25565 0.838C5.24498 0.864667 5.23865 0.887333 5.23665 0.906C5.23465 0.924 5.23632 0.938333 5.24165 0.949C5.24765 0.959667 5.25732 0.967333 5.27065 0.972C5.28465 0.976667 5.30198 0.979333 5.32265 0.98V1C5.30398 0.998667 5.28432 0.998 5.26365 0.998C5.24365 0.997333 5.22498 0.997 5.20765 0.997C5.19098 0.997 5.17665 0.997333 5.16465 0.998C5.15332 0.998 5.14265 0.998667 5.13265 1V0.98C5.14598 0.976667 5.15965 0.969 5.17365 0.957C5.18765 0.944333 5.20032 0.923 5.21165 0.893L5.44665 0.287C5.44932 0.287 5.45198 0.287 5.45465 0.287C5.45732 0.287 5.45998 0.287 5.46265 0.287ZM5.58465 0.712V0.732H5.28665L5.29665 0.712H5.58465ZM6.291 0.292C6.28833 0.317333 6.28633 0.342 6.285 0.366C6.28433 0.389333 6.284 0.407333 6.284 0.42C6.284 0.436 6.28433 0.451 6.285 0.465C6.28567 0.479 6.28633 0.491333 6.287 0.502H6.264C6.25933 0.455333 6.253 0.418667 6.245 0.392C6.237 0.364667 6.223 0.345 6.203 0.333C6.183 0.321 6.152 0.315 6.11 0.315H6.047C6.02433 0.315 6.007 0.317 5.995 0.321C5.98367 0.324333 5.976 0.332 5.972 0.344C5.968 0.355333 5.966 0.373333 5.966 0.398V0.894C5.966 0.918 5.96833 0.936 5.973 0.948C5.97833 0.96 5.98833 0.968 6.003 0.972C6.01767 0.976 6.039 0.978667 6.067 0.98V1C6.04967 0.998667 6.02767 0.998 6.001 0.998C5.97433 0.997333 5.94733 0.997 5.92 0.997C5.894 0.997 5.86967 0.997333 5.847 0.998C5.82433 0.998 5.806 0.998667 5.792 1V0.98C5.81467 0.978667 5.83167 0.976 5.843 0.972C5.855 0.968 5.863 0.96 5.867 0.948C5.871 0.936 5.873 0.918 5.873 0.894V0.398C5.873 0.373333 5.871 0.355333 5.867 0.344C5.863 0.332 5.855 0.324 5.843 0.32C5.83167 0.315333 5.81467 0.312667 5.792 0.312V0.292C5.81667 0.292667 5.84267 0.293333 5.87 0.294C5.89733 0.294 5.92433 0.294333 5.951 0.295C5.97767 0.295 6.00233 0.295 6.025 0.295C6.04833 0.295 6.06733 0.295 6.082 0.295C6.11267 0.295 6.14733 0.295 6.186 0.295C6.22533 0.294333 6.26033 0.293333 6.291 0.292ZM6.136 0.644C6.136 0.644 6.136 0.647333 6.136 0.654C6.136 0.660667 6.136 0.664 6.136 0.664H5.936C5.936 0.664 5.936 0.660667 5.936 0.654C5.936 0.647333 5.936 0.644 5.936 0.644H6.136ZM6.155 0.512C6.15233 0.55 6.151 0.579 6.151 0.599C6.15167 0.619 6.152 0.637333 6.152 0.654C6.152 0.670667 6.15233 0.689 6.153 0.709C6.15367 0.729 6.15533 0.758 6.158 0.796H6.135C6.13233 0.774667 6.129 0.754 6.125 0.734C6.12167 0.713333 6.11367 0.696667 6.101 0.684C6.089 0.670667 6.06833 0.664 6.039 0.664V0.644C6.061 0.644 6.07767 0.639667 6.089 0.631C6.101 0.621667 6.10967 0.61 6.115 0.596C6.12033 0.582 6.124 0.567667 6.126 0.553C6.128 0.537667 6.13 0.524 6.132 0.512H6.155ZM6.86034 0.292C6.85767 0.315333 6.85567 0.338 6.85434 0.36C6.85367 0.382 6.85334 0.398667 6.85334 0.41C6.85334 0.422 6.85367 0.433667 6.85434 0.445C6.855 0.455667 6.85567 0.464667 6.85634 0.472H6.83334C6.82934 0.432667 6.82367 0.401667 6.81634 0.379C6.809 0.355667 6.79634 0.339333 6.77834 0.33C6.761 0.32 6.73467 0.315 6.69934 0.315H6.61634C6.59367 0.315 6.57634 0.317 6.56434 0.321C6.553 0.324333 6.54534 0.332 6.54134 0.344C6.53734 0.355333 6.53534 0.373333 6.53534 0.398V0.894C6.53534 0.918 6.53734 0.936 6.54134 0.948C6.54534 0.96 6.553 0.968 6.56434 0.972C6.57634 0.975333 6.59367 0.977 6.61634 0.977H6.68934C6.73134 0.977 6.763 0.971333 6.78434 0.96C6.80634 0.948667 6.822 0.930333 6.83134 0.905C6.84134 0.879 6.84867 0.844 6.85334 0.8H6.87634C6.87434 0.818 6.87334 0.842 6.87334 0.872C6.87334 0.884667 6.87367 0.903 6.87434 0.927C6.87567 0.950333 6.87767 0.974667 6.88034 1C6.84634 0.998667 6.808 0.998 6.76534 0.998C6.72267 0.997333 6.68467 0.997 6.65134 0.997C6.63667 0.997 6.61767 0.997 6.59434 0.997C6.57167 0.997 6.547 0.997333 6.52034 0.998C6.49367 0.998 6.46667 0.998333 6.43934 0.999C6.412 0.999 6.386 0.999333 6.36134 1V0.98C6.384 0.978667 6.401 0.976 6.41234 0.972C6.42434 0.968 6.43234 0.96 6.43634 0.948C6.44034 0.936 6.44234 0.918 6.44234 0.894V0.398C6.44234 0.373333 6.44034 0.355333 6.43634 0.344C6.43234 0.332 6.42434 0.324 6.41234 0.32C6.401 0.315333 6.384 0.312667 6.36134 0.312V0.292C6.386 0.292667 6.412 0.293333 6.43934 0.294C6.46667 0.294 6.49367 0.294333 6.52034 0.295C6.547 0.295 6.57167 0.295 6.59434 0.295C6.61767 0.295 6.63667 0.295 6.65134 0.295C6.682 0.295 6.71667 0.295 6.75534 0.295C6.79467 0.294333 6.82967 0.293333 6.86034 0.292ZM6.68834 0.634C6.68834 0.634 6.68834 0.637333 6.68834 0.644C6.68834 0.650667 6.68834 0.654 6.68834 0.654H6.50534C6.50534 0.654 6.50534 0.650667 6.50534 0.644C6.50534 0.637333 6.50534 0.634 6.50534 0.634H6.68834ZM6.71734 0.502C6.71467 0.54 6.71334 0.569 6.71334 0.589C6.714 0.609 6.71434 0.627333 6.71434 0.644C6.71434 0.660667 6.71467 0.679 6.71534 0.699C6.716 0.719 6.71767 0.748 6.72034 0.786H6.69734C6.69467 0.764667 6.69134 0.744 6.68734 0.724C6.684 0.703333 6.676 0.686667 6.66334 0.674C6.65134 0.660667 6.63067 0.654 6.60134 0.654V0.634C6.62334 0.634 6.64 0.629667 6.65134 0.621C6.66334 0.611667 6.672 0.6 6.67734 0.586C6.68267 0.572 6.68634 0.557667 6.68834 0.543C6.69034 0.527667 6.69234 0.514 6.69434 0.502H6.71734Z" fill="#443322"/>
</g>
</svg>
